<?xml version="1.0" encoding="UTF-8" standalone="no"?>
<svg xmlns="http://www.w3.org/2000/svg" xmlns:xlink="http://www.w3.org/1999/xlink" width="64" height="64">
  <defs>
    <linearGradient id="c">
      <stop offset="0" stop-color="#5cb2ff"/>
      <stop offset="1" stop-color="#fff"/>
    </linearGradient>
    <linearGradient id="b">
      <stop offset="0" stop-color="#fff"/>
      <stop offset="1" stop-color="#370000" stop-opacity="0"/>
    </linearGradient>
    <linearGradient id="d">
      <stop offset="0" stop-color="#ff3a00"/>
      <stop offset="1" stop-color="#370000"/>
    </linearGradient>
    <linearGradient id="a">
      <stop offset="0"/>
      <stop offset="1" stop-color="#fff"/>
    </linearGradient>
    <linearGradient xlink:href="#a" id="g" x1="30.5917225" x2="18.4360981" y1="65.8304825" y2="42.3886795" gradientTransform="scale(1.32333 .75567)" gradientUnits="userSpaceOnUse" spreadMethod="pad"/>
    <linearGradient xlink:href="#a" id="h" x1="24.9874783" x2="33.7596359" y1="44.9967537" y2="60.752861" gradientTransform="scale(1.58774 .62982)" gradientUnits="userSpaceOnUse" spreadMethod="pad"/>
    <linearGradient xlink:href="#b" id="k" x1=".8273406" x2=".57553899" y1=".11727467" y2=".88281417" gradientUnits="objectBoundingBox" spreadMethod="pad"/>
    <linearGradient xlink:href="#a" id="i" x1=".48992321" x2=".53917038" y1="-.04502178" y2="1.25967419" gradientUnits="objectBoundingBox" spreadMethod="pad"/>
    <linearGradient xlink:href="#c" id="f" x1="38.9676552" x2="34.3394775" y1="112.42765" y2="55.2668114" gradientTransform="scale(1.1074 .90301)" gradientUnits="userSpaceOnUse" spreadMethod="pad"/>
    <linearGradient xlink:href="#c" id="e" x1="18.5747337" x2="21.0069866" y1="70.6098175" y2="44.9572525" gradientTransform="scale(.77778 1.2857)" gradientUnits="userSpaceOnUse" spreadMethod="pad"/>
    <radialGradient xlink:href="#d" id="j" cx="39.9771919" cy="62.0348434" r="2.87974644" fx="39.9771919" fy="62.0348434" gradientTransform="scale(1.18125 .84656)" gradientUnits="userSpaceOnUse" spreadMethod="pad"/>
  </defs>
  <path fill-opacity=".3" fill-rule="evenodd" d="M5.5255791 23.239874C4.5154563 29.105808 3.4135 33.722223 2.7706911 39.379985 4.790938 45.00304 10.392523 49.376509 16.177798 50.209544c3.122157-.52067 5.785269-.624716 8.907493-2.394973 4.744512 2.186728 9.397206 4.789947 14.141719 6.976688 6.366868-4.199864 15.029383-10.170063 21.396251-14.369934-3.61199-1.874369-9.703338-3.332121-13.315329-5.206504 2.540691-10.065944.948939-17.528523-7.897279-23.325038-1.193736-1.04134-4.315953-1.770329-7.07083-.62479 0 0-1.285614-4.7900254-3.030398-7.9139148-2.479416-.4165509-21.5799414 5.5188622-22.2227477 6.9766878.4285329 3.262715 1.4080286 6.941981 2.0202251 9.892338-1.7447446 1.388339-2.1120585 1.943723-3.5813233 3.01977z"/>
  <path fill-rule="evenodd" d="M4.130193 19.758822C3.1200702 25.62475 2.0181139 30.241171 1.375305 35.898933c2.0202469 5.623055 7.6218285 9.996524 13.407104 10.82956 3.122157-.520671 5.785276-.624724 8.907499-2.39498 4.744512 2.186741 9.3972 4.789953 14.141719 6.976694 6.366868-4.19987 15.029383-10.170063 21.396252-14.369927-3.611998-1.874376-9.703338-3.332128-13.315336-5.206504 2.54069-10.065944.948945-17.52853-7.89728-23.3250443-1.193729-1.0413407-4.315952-1.770323-7.070823-.6247898 0 0-1.28562-4.7900259-3.030405-7.91391326C25.434626-.54652291 6.3340995 5.3888961 5.6912913 6.846714c.4285348 3.262722 1.4080252 6.941982 2.0202283 9.892339-1.7447472 1.388339-2.1120618 1.943716-3.5813266 3.019769z"/>
  <path fill="#c7eeff" fill-rule="evenodd" d="m24.700001 41.313749 12.76428 5.622983 15.794679-9.267536s-12.488819-4.685834-12.580637-4.581721c-.091819.10412-15.886504 8.330387-15.978322 8.226274z"/>
  <path fill="url(#e)" fill-rule="evenodd" d="M6.8850743 21.216648c-1.5304911 4.75524-2.4181733 9.51056-2.9385416 14.265807 2.7242808 5.137085 7.5606873 6.837862 11.0195793 8.018036 1.132581-3.01977 1.438653-12.183193-.82651-16.34843-2.234492-3.332128-4.7445123-5.518862-7.2545277-5.935413z"/>
  <path fill="url(#f)" fill-rule="evenodd" stroke="#000" stroke-width=".666512" d="M7.7115793 19.967134c11.9990447 6.664257 7.9278897 20.409394 8.4482687 23.637403 10.621606-2.95035 18.304639-8.295687 27.36517-13.224467 1.25501-5.622982 2.234493-14.578172-7.254532-20.6177055C26.659025 11.081364 16.037419 14.587025 7.7115793 19.967134z" font-size="12"/>
  <path fill="url(#g)" fill-rule="evenodd" d="M14.139602 16.739053c4.193524 1.249586 4.713909 7.809789 6.519901 8.122154 5.509755 1.527232 15.151878-3.401614 15.42734-5.727174.459164-2.429687-2.571235-7.670898-4.958766-8.226275-5.846484 1.527238-11.417453 3.158596-16.988475 5.831295z"/>
  <path fill="#fff" fill-rule="evenodd" d="M10.741918 17.884519 8.7216723 8.3045459 26.536603 2.993916l1.928421 7.601484-2.571234.937155-1.561142-4.3734826L13.129509 10.5954l1.193736 5.727175"/>
  <path fill="url(#h)" fill-rule="evenodd" d="M14.139602 16.739053c1.336439.32918 1.495294.857233 3.44594 2.915643 8.080983 1.735557 11.302472-5.043474 16.628577-6.015402-1.586235-2.061464-1.524961-1.96792-3.086042-2.731536-5.846484 1.527238-11.417453 3.158596-16.988475 5.831295z"/>
  <path fill="url(#i)" fill-rule="evenodd" d="M34.775604 25.400904c.334445 1.371364-.678489 2.942344-2.261067 3.50661-1.582577.564279-3.138401-.090802-3.472853-1.462167-.334445-1.371364.678509-2.942271 2.261087-3.506537 1.582577-.564272 3.138381.09073 3.472833 1.462094z" font-size="12"/>
  <path fill="url(#j)" fill-rule="evenodd" d="M34.321479 25.175152c.308249 1.185358-.625341 2.543247-2.083956 3.030983-1.458616.487736-2.892569-.078495-3.200818-1.263846-.308255-1.185351.625354-2.54318 2.08397-3.030916 1.458615-.48773 2.892554.078428 3.200804 1.263779z" font-size="12"/>
  <path fill="url(#k)" fill-rule="evenodd" d="M33.240167 25.433931c0 .718473-.555437 1.301606-1.239741 1.301606-.684305 0-1.239675-.583133-1.239675-1.301606 0-.718547.55537-1.301679 1.239675-1.301679.684304 0 1.239741.583132 1.239741 1.301679z" font-size="12"/>
  <path fill="none" stroke="#000" stroke-width=".666512" d="M48.095779 37.739884c-.111601-.056926-.81312-.697901-1.168821-.294474-.537911.473045-.519443.610809-.519443 1.472583-.193342.65773-.546733.448701-1.03895.147277-.407775-.069347-.542976-.335216-.649313.14727-.173194.196316-.086627.687179-.259754.883561-.673663 0-1.527405-.209161-1.948018 0 0 .797553-.091945.790024-.77919.883569-.767181 0-1.048584-.10653-1.428516.441751-.28917.478223-.419167.889529-.77919 1.030831-.63824-.022345-1.378693-.249112-1.818141 0-.147841.712526-.164178.95405-.909067 1.030846-.522887 0-.519442-.003904-.519442.589087-.193349.093903-.196349.200578-.389631.294474m7.142665-8.688432c-.136953-.126193-.730688-.441817-1.298698-.441817-.340745.356724-.290239.684337-.519442 1.030838-.639368 0-1.197115-.193196-1.558387 0-.423242.479936-.561378.734453-.649319 1.472656-.232025.215269-.178511.294474-.649379.294474-.660526-.055426-.971729-.37581-1.168762.294547-.479259.429755-.624909.441824-1.428575.441824-.389751 0-.844036-.073741-1.038885.147264-.153849.741409-.225453.896201-.909067 1.178042-.528265.409102-.759606.275527-.779196 1.030845-.347377.14415-.899933.147277-1.428569.147277" font-size="12"/>
</svg>