<?xml version="1.0" encoding="UTF-8" standalone="no"?>
<!DOCTYPE svg PUBLIC "-//W3C//DTD SVG 20010904//EN"
"http://www.w3.org/TR/2001/REC-SVG-20010904/DTD/svg10.dtd">
<svg xmlns="http://www.w3.org/2000/svg" width="64" height="64" version="1">
  <g fill-rule="evenodd" font-size="12" transform="matrix(-1.04843 1.43917 1.43917 1.04843 43.88843 -82.64666)">
    <path fill="#0d3c07" d="M49.32125313 38.52805747c2.73064728 1.20355326 18.49819386-1.54223374 18.88826676-4.12127645.5689216-6.426838-13.8696392-14.39265212-16.01517713-15.08039685-2.14553793-.68774472-4.04330834-.09912893-4.6284177 1.10442433-.58510935 1.20355327-1.36525515 17.23744732 1.75532807 18.09724897z"/>
    <path fill="#2aaf18" d="M51.5506 35.4589c1.9937.9968 12.6741-.5697 12.9589-2.7057.2848-2.1361-3.554036-3.085047-3.126836-4.509047C57.018216 23.149473 50.6962 21.3608 50.269 22.3576c-.4272.9968-.9968 12.3892 1.2816 13.1013z"/>
    <path fill="#208c11" d="M61.9462 28.3386c1.5664 1.2816 3.4177 4.4145 2.4209 5.269-1.7088 1.5664-11.5348 2.7057-12.6741 2.1361-1.1392-.5697 8.4019-2.2785 8.5443-4.6994.1424-2.4209-2.779218-3.049172-1.924818-4.473272.8544-1.424 3.206518 1.197972 3.633718 1.767572z"/>
  </g>
  <path fill="#fff" fill-rule="evenodd" d="M37.469605 25.926778s-8.38233-8.302435-10.469876-8.882079c-2.087412-.579526-.916232 3.410774-.916232 3.410774s10.604379 3.960701 11.386108 5.471305z" font-size="12"/>
</svg>