<?xml version="1.0" encoding="UTF-8" standalone="no"?>
<!DOCTYPE svg PUBLIC "-//W3C//DTD SVG 20010904//EN"
"http://www.w3.org/TR/2001/REC-SVG-20010904/DTD/svg10.dtd">
<svg xmlns="http://www.w3.org/2000/svg" width="64" height="64" version="1">
  <path fill="#0d3c07" fill-rule="evenodd" d="m51.57501 6.6210397.603897 18.9891953c.178608 9.431159.293074 15.20134.07591 27.751775l-43.859164.694036c-.907662-12.244535-1.1772698-16.909611-.7570854-27.808317.5060019-7.802426.1858668-8.729733 1.057509-18.9660494-.5118083-.821123 41.0871574-3.6566047 42.8789334-.6606399z"/>
  <path fill="#2aaf18" fill-rule="evenodd" d="m48.327173 10.547803.509938 16.034711c.150818 7.963788.247475 12.8362.064099 23.433943l-37.035222.586053c-.766441-10.339437-.994101-14.278685-.639292-23.481688.427274-6.588465.156948-7.371494.892973-16.015167-.432177-.693366 34.694506-3.0876823 36.207504-.557852z"/>
  <path fill="#208c11" fill-rule="evenodd" d="m46.852425 49.94167-34.847292.712187c-.12945-1.359223-.748843-5.085295-.796073-9.17007-.04724-4.084774-.104852-11.505668-.105165-11.605943-.000626-.200559 2.860481.912762 3.650727 3.67818.842538 3.133323-.062589 10.217355.662041 10.215152l31.202473-.094844c.201562-.000613.849374 6.252747.233289 6.265338z"/>
  <path fill="#fff" fill-rule="evenodd" d="m12.935114 10.442224 35.365092-.7121873c.12945 1.3592233.231044 5.0852953.278274 9.1700703.04724 4.084774.104852 11.505668.105165 11.605943.000626.200559-2.860481-.912762-3.650727-3.67818-.842538-3.133323.062589-10.217355-.662041-10.215152l-31.202474.094844c-.201562.000613-.849378-6.252931-.233289-6.265338z"/>
</svg>